# xmcd CD database file
#
# Track frame offsets:
#	150
#	13935
#	22272
#	32967
#	43795
#	53697
#	63032
#	73580
#	80795
#	88240
#	99310
#	109120
#	118130
#	129975
#	138527
#	148135
#	156670
#	165390
#	175595
#	184430
#	198492
#	208747
#	219390
#	231577
#	243887
#	257922
#	271312
#	281740
#	292777
#	304800
#
# Disc length: 4213 seconds
#
# Revision: 2
# Processed by: cddbd v1.5.2PL0 Copyright (c) Steve Scherf et al.
# Submitted via: CDex 1.70beta2
#
DISCID=d010731e
DTITLE=Collins Kids - Hop, Skip and Jump [CD2)
DYEAR=1900
DGENRE=Rockabilly
TTITLE0=The Lonesome Road
TTITLE1=Early American (instrument)
TTITLE2=The Rockin' Gypsy (instrumental)
TTITLE3=Bye, Bye (instrumental)
TTITLE4=Hurricane (instrumental)
TTITLE5=Mercy
TTITLE6=Rock Boppin' Baby
TTITLE7=Whistle Bait
TTITLE8=Sweet Talk
TTITLE9=Soda Poppin' Around
TTITLE10=Spur of the Moment (instrumental)
TTITLE11=The Rebel, Johnny Yuma (instrumental)
TTITLE12=There'll Be Some Changes Made (duet)
TTITLE13=The Fire Ball Mail (instrumental)
TTITLE14=T-Bone (instrumental)
TTITLE15=What about Tomorrow
TTITLE16=Get Along Home Cindy
TTITLE17=You've Been Gone Too Long
TTITLE18=One Step Down
TTITLE19=There Stands the One
TTITLE20=Wild and Wicked Love
TTITLE21=Hey Mama Boom-A-Lacka
TTITLE22=More Than a Friend
TTITLE23=The Pied Piper Poodle
TTITLE24=Blues in the Night
TTITLE25=Another Man Done Gone
TTITLE26=Sugar Plum
TTITLE27=Kinda Like Love
TTITLE28=Are You Certain?
TTITLE29=That's Your Affair
EXTD=
EXTT0=
EXTT1=
EXTT2=
EXTT3=
EXTT4=
EXTT5=
EXTT6=
EXTT7=
EXTT8=
EXTT9=
EXTT10=
EXTT11=
EXTT12=
EXTT13=
EXTT14=
EXTT15=
EXTT16=
EXTT17=
EXTT18=
EXTT19=
EXTT20=
EXTT21=
EXTT22=
EXTT23=
EXTT24=
EXTT25=
EXTT26=
EXTT27=
EXTT28=
EXTT29=
PLAYORDER=
